<?xml version="1.0" encoding="utf-8"?>
<!-- Generator: Adobe Illustrator 25.1.0, SVG Export Plug-In . SVG Version: 6.00 Build 0)  -->
<svg version="1.1" id="Layer_1" xmlns="http://www.w3.org/2000/svg" xmlns:xlink="http://www.w3.org/1999/xlink" x="0px" y="0px"
	 viewBox="0 0 50 50" style="enable-background:new 0 0 50 50;" xml:space="preserve">
<style type="text/css">
	.st0{fill:url(#SVGID_1_);}
	.st1{fill:url(#SVGID_2_);}
	.st2{fill:url(#SVGID_3_);}
	.st3{fill:url(#SVGID_4_);}
	.st4{fill:url(#SVGID_5_);}
	.st5{fill:url(#SVGID_6_);}
	.st6{fill:url(#SVGID_7_);}
	.st7{fill:url(#SVGID_8_);}
</style>
<linearGradient id="SVGID_1_" gradientUnits="userSpaceOnUse" x1="63.8885" y1="48.1828" x2="73.5761" y2="32.9473">
	<stop  offset="0.3243" style="stop-color:#E9EF14"/>
	<stop  offset="0.9235" style="stop-color:#FF6D00"/>
</linearGradient>
<path className="st0" d="M88.1,42.6c0.1-0.3,0.2-0.6,0.2-0.8c0-0.1,0,0,0,0c-1.3,1-5,2-7.8,1c0,0-0.2,0.1-0.6,0.3
	c-4.7,2.4-16.8,3.4-19.5-12.3c-0.1-0.6,0.1-1.5,0-1.6c-1.4-2.3-1.4-4.1-1.4-5.9c-0.4,0.8-1.5,3.8-1.5,8.4c0,4.7,1.4,7.2,2,8.4
	c3.7,7.2,12,8.7,15.4,8.6C83.7,48.3,87.7,43.7,88.1,42.6z"/>
<linearGradient id="SVGID_2_" gradientUnits="userSpaceOnUse" x1="307.3955" y1="-596.0803" x2="304.8384" y2="-614.5652" gradientTransform="matrix(0.8059 0.5921 -0.6062 0.8277 -526.4799 358.3183)">
	<stop  offset="0.202" style="stop-color:#E9EF14"/>
	<stop  offset="0.9235" style="stop-color:#FF6D00"/>
</linearGradient>
<path className="st1" d="M86.9,29.5C86.9,29.4,86.9,29.4,86.9,29.5C86.9,29.4,86.9,29.4,86.9,29.5c0.8-0.3,1.7-0.8,2.3-1.7
	c0.5-0.7,0.9-2,1.2-2.9c0.4-1.1,0.8-4.5,0.9-4.5c0.2,0.1,0.6,1.6,0.7,2.2c0.2,0.9,0.2,1.3,0.3,2.3c0.1,0.3,0.2,1.8,0.1,3.2
	c0,0.3,0.1,1.9-0.8,3.7c-0.7,1.6-1.6,2.5-1.9,2.8c-0.5,0.5-1.3,1.1-2.3,1.6c-0.6,0.3-1.1,0.4-1.1,0.5c0,0.2,1,0.4,1.9,0.4
	c2,0,3.5-1.1,4-1.4c0,0,1.7-1.2,2.8-3.2c0.1-0.2,0.2-0.4,0.2-0.4c0.3-0.6,0.3-0.9,0.4-0.9c0.1,0,0.2,1.1-0.4,3.1
	c-0.1,0.3-0.7,1.7-1.3,2.5c-0.4,0.6-1.1,1.6-1.7,2.2c-0.4,0.4-1.2,1.2-2.8,2.3c-2.1,1.4-3.1,1.6-4,1.8c-2.9,0.6-4.9-0.2-4.9-0.2
	c0.1-0.1,0.2-0.1,0.2-0.2c0.4-0.3,0.5-0.3,0.9-0.6c1.2-1,1.7-1.4,2.4-2.4c2.1-3,3-5.7,2.9-8.6C87,29.9,86.9,29.5,86.9,29.5z"/>
<linearGradient id="SVGID_3_" gradientUnits="userSpaceOnUse" x1="-1315.7695" y1="-536.1275" x2="-1315.7695" y2="-554.52" gradientTransform="matrix(-0.839 -0.6445 -0.7401 0.9486 -1445.0909 -306.6886)">
	<stop  offset="0.3243" style="stop-color:#E9EF14"/>
	<stop  offset="0.9235" style="stop-color:#FF6D00"/>
</linearGradient>
<path className="st2" d="M76.4,14.1c0.1-0.3,0.3-0.7,0.5-1c0.8-1.2,1.8-2,2.8-2.7c0.5-0.4,1.9-1.1,1.9-1.1c-0.1-0.2-3.5-0.6-7.4,1.3
	c-0.3,0.2-2.8,1.2-4.6,2.7c-1.5,1.3-2.3,2.6-2.6,3c-0.3,0.5-0.6,1.3-0.9,2c0,0-0.1,0.1-0.1,0.1c-0.3,0.2-0.8,0.7-1,0.9
	c0,0-0.1,0.1-0.1,0c-0.1-0.2-0.1-0.4-0.2-0.6c-0.5-2.1,0.3-4.1,0.5-4.7c0,0,0.8-2.3,2.7-4.1c0.2-0.2,0.4-0.4,0.4-0.4
	C69,9,69.3,8.9,69.3,8.8c0-0.1-1.2,0.2-3.2,1.5c-0.3,0.2-1.6,1.4-2.4,2.3c-0.5,0.6-1.4,1.8-1.9,2.6c-0.3,0.6-1,1.7-1.8,3.8
	c-1,2.7-1,3.8-0.9,4.9c0,2,0.5,3.7,1.4,5.1c0,0,0,0,0-0.1c0.4-3,1.4-7,5.4-10.4c1.9-1.7,3.9-2.5,5.2-3.1c1.5-0.7,3.2-1.1,4.9-1.3
	C76.1,14.1,76.4,14.1,76.4,14.1z"/>
<linearGradient id="SVGID_4_" gradientUnits="userSpaceOnUse" x1="105.2878" y1="-1.8794" x2="66.2136" y2="38.043">
	<stop  offset="0.3424" style="stop-color:#E9EF14"/>
	<stop  offset="0.9235" style="stop-color:#FF6D00"/>
</linearGradient>
<path className="st3" d="M88.8,15.6c-0.1-0.2,0.2-0.5,0.5-0.7c0.7-0.8,1.1-1.6,2-3.3c0.9-1.8,1-3.5,1.1-4.3c0.1-1.5-0.1-2.5-0.5-4
	c-0.2-0.8-0.3-1.1-0.4-1.1c-0.2,0-0.2,1.1-0.3,1.8c-0.3,2.2-1.3,3.9-1.7,4.5c-0.1,0.2-2.4,3.7-6.2,4.8c-0.6,0.2-1.4,0.3-3.2,0.5
	c-2.1,0.3-3,0.3-4,0.4c-3.8,0.4-6.8,2.1-7.3,2.4c-1,0.6-3.1,1.8-5,4.3c-1.6,2.1-2.3,4.1-2.5,4.7c-0.7,2.3-0.8,4.1-0.8,5.2
	c0,0,0.1,2.5,0.6,3.9c1.9,5.3,5.7,9.1,10.9,9.9c0.9,0.2,4.5,0.1,7.1-0.9c2.1-0.9,3.5-2.1,4.3-3c0.9-1,2.8-3.3,3.4-6.5
	c0.4-2.4,0.2-4.2,0.1-4.8c-0.1-0.7-0.2-1.3-0.4-3c-0.2-1.4-0.2-1.9-0.2-2.2c0-2.2,1.2-3.9,1.6-4.4c1.4-1.9,3.2-3.1,3.4-3.2
	c0.5-0.2,1-0.4,1-0.6C92.2,15.4,89,16.3,88.8,15.6z M83.3,20.2c-0.7,0.6-2.1,2-2.5,2.7c-0.7,0.9-0.9,1.9-0.8,2.8
	c0.2,1.2,0.4,1.7,1.1,2.8c1.3,2,1.5,3.4,1.4,4.6c-0.2,1.7-1.1,4.1-3.2,5.5c-2.2,1.4-4.6,2-7,1.4c-3.2-0.7-6.8-3-7.2-8.4
	c-0.1-0.9-0.2-1.9,0.5-4.3c0.5-1.9,1-2.8,1.3-3.3c0.4-0.7,1.1-1.7,1.5-2.2c0.6-0.8,1.7-1.7,1.9-1.9c1.7-1.1,2.7-1.3,2.8-1.2
	c0,0-0.2,0.2-0.8,0.6c0,0-0.2,0.1-0.3,0.3C70.5,21,69.9,23,69.9,23c-0.2,0.5-0.6,2.2-0.1,4.1c0.3,0.8,0.7,1.7,0.9,1.7
	c0.1,0,0.1-0.5,0.1-1.2c0.1-1,0.4-1.9,0.8-2.6c0.2-0.4,0.8-1.5,2.1-2.6c1.4-1.3,2.9-1.6,3.2-1.7c1.3-0.4,2.7-0.7,3-0.8
	c1-0.1,1.3-0.2,2.2-0.4c0.6-0.1,1.9-0.4,2-0.2C84.3,19.4,83.7,19.9,83.3,20.2z"/>
<linearGradient id="SVGID_5_" gradientUnits="userSpaceOnUse" x1="8.2579" y1="5.9882" x2="20.6005" y2="18.9567" gradientTransform="matrix(1 0 0 -1 0 52)">
	<stop  offset="0" style="stop-color:#FFFFFF;stop-opacity:0"/>
	<stop  offset="1" style="stop-color:#FFFFFF"/>
</linearGradient>
<path className="st4" d="M35.2,42.3c0.1-0.3,0.2-0.6,0.2-0.8c0-0.1,0,0,0,0c-1.3,1-5,2-7.7,1c0,0-0.2,0.1-0.6,0.3
	c-4.7,2.4-16.6,3.4-19.3-12.2c-0.1-0.6,0.1-1.5,0-1.6c-1.4-2.3-1.4-4-1.4-5.8c-0.4,0.8-1.5,3.8-1.5,8.3c0,4.7,1.4,7.1,2,8.4
	c3.6,7.1,11.9,8.6,15.2,8.5C30.8,48,34.8,43.4,35.2,42.3z"/>
<linearGradient id="SVGID_6_" gradientUnits="userSpaceOnUse" x1="231.9025" y1="505.5978" x2="229.3668" y2="523.9276" gradientTransform="matrix(0.8059 0.5921 0.6062 -0.8277 -463.6621 327.8534)">
	<stop  offset="0" style="stop-color:#FFFFFF;stop-opacity:0"/>
	<stop  offset="1" style="stop-color:#FFFFFF"/>
</linearGradient>
<path className="st5" d="M34,29.3C34,29.3,34,29.3,34,29.3L34,29.3c0.8-0.3,1.7-0.8,2.2-1.7c0.5-0.7,0.9-2,1.2-2.9
	c0.4-1.1,0.8-4.5,0.9-4.4c0.2,0.1,0.6,1.6,0.7,2.2c0.2,0.9,0.2,1.3,0.3,2.2c0.1,0.3,0.2,1.8,0.1,3.2c0,0.3,0.1,1.9-0.8,3.6
	c-0.7,1.6-1.6,2.5-1.9,2.8c-0.5,0.5-1.3,1.1-2.2,1.6c-0.6,0.3-1.1,0.4-1.1,0.5c0,0.2,1,0.4,1.9,0.4c2,0,3.5-1.1,3.9-1.4
	c0,0,1.7-1.2,2.7-3.1c0.1-0.2,0.2-0.4,0.2-0.4c0.3-0.6,0.3-0.9,0.4-0.9c0.1,0,0.2,1.1-0.4,3.1c-0.1,0.3-0.7,1.7-1.3,2.5
	c-0.4,0.6-1.1,1.6-1.7,2.1c-0.4,0.4-1.2,1.2-2.8,2.3c-2.1,1.4-3,1.6-4,1.8c-2.8,0.6-4.9-0.2-4.8-0.2c0.1-0.1,0.2-0.1,0.2-0.2
	c0.4-0.3,0.5-0.3,0.9-0.6c1.2-1,1.7-1.4,2.4-2.4c2.1-2.9,3-5.6,2.9-8.6C34.1,29.8,34,29.3,34,29.3z"/>
<linearGradient id="SVGID_7_" gradientUnits="userSpaceOnUse" x1="-944.2667" y1="447.0139" x2="-944.2667" y2="465.2521" gradientTransform="matrix(-0.839 -0.6445 0.7401 -0.9486 -1120.0771 -152.025)">
	<stop  offset="0" style="stop-color:#FFFFFF;stop-opacity:0"/>
	<stop  offset="1" style="stop-color:#FFFFFF"/>
</linearGradient>
<path className="st6" d="M23.6,14c0.1-0.3,0.3-0.7,0.5-1c0.8-1.2,1.8-2,2.8-2.6c0.5-0.4,1.9-1.1,1.9-1.1c-0.1-0.2-3.5-0.6-7.4,1.3
	c-0.3,0.2-2.8,1.2-4.5,2.7c-1.5,1.3-2.3,2.5-2.5,3c-0.3,0.5-0.6,1.3-0.9,2c0,0-0.1,0.1-0.1,0.1c-0.3,0.2-0.8,0.7-1,0.9
	c0,0-0.1,0.1-0.1,0c-0.1-0.2-0.1-0.4-0.2-0.6c-0.5-2.1,0.3-4.1,0.5-4.7c0,0,0.8-2.2,2.7-4.1c0.2-0.2,0.4-0.4,0.4-0.4
	c0.6-0.6,0.9-0.7,0.9-0.7c0-0.1-1.2,0.2-3.2,1.5c-0.3,0.2-1.6,1.4-2.3,2.2c-0.5,0.6-1.4,1.8-1.9,2.6c-0.3,0.6-1,1.7-1.8,3.8
	c-1,2.7-1,3.8-0.9,4.9c0,2,0.5,3.7,1.4,5.1c0,0,0,0,0-0.1c0.4-2.9,1.4-6.9,5.4-10.3c1.9-1.7,3.9-2.5,5.2-3.1
	c1.5-0.7,3.1-1.1,4.9-1.3C23.3,14.1,23.6,14.1,23.6,14z"/>
<linearGradient id="SVGID_8_" gradientUnits="userSpaceOnUse" x1="23.5533" y1="66.9625" x2="23.5533" y2="11.5689" gradientTransform="matrix(1 0 0 -1 0 52)">
	<stop  offset="0" style="stop-color:#FFFFFF;stop-opacity:0"/>
	<stop  offset="1" style="stop-color:#FFFFFF"/>
</linearGradient>
<path className="st7" d="M35.8,15.6c-0.1-0.2,0.2-0.5,0.5-0.7c0.7-0.8,1.1-1.6,2-3.3c0.9-1.8,1-3.5,1.1-4.3c0.1-1.5-0.1-2.5-0.5-4
	c-0.2-0.8-0.3-1.1-0.4-1.1c-0.2,0-0.2,1.1-0.3,1.8c-0.3,2.2-1.3,3.8-1.7,4.4c-0.1,0.2-2.3,3.7-6.1,4.8c-0.6,0.2-1.4,0.3-3.1,0.5
	c-2.1,0.3-3,0.3-4,0.4c-3.8,0.4-6.7,2.1-7.3,2.4c-1,0.6-3,1.8-4.9,4.2c-1.6,2.1-2.3,4-2.5,4.6c-0.7,2.2-0.8,4.1-0.8,5.1
	c0,0,0.1,2.5,0.6,3.8c1.9,5.3,5.7,9.1,10.8,9.8c0.9,0.2,4.4,0.1,7.1-0.9c2.1-0.9,3.5-2.1,4.2-3c0.9-1,2.8-3.3,3.4-6.4
	c0.4-2.4,0.2-4.1,0.1-4.8c-0.1-0.7-0.2-1.3-0.4-3c-0.2-1.4-0.2-1.9-0.2-2.2c0-2.2,1.2-3.9,1.6-4.3c1.4-1.9,3.2-3.1,3.4-3.2
	c0.5-0.2,1-0.4,1-0.6C39.3,15.4,36,16.2,35.8,15.6z M30.4,20.1c-0.7,0.6-2,2-2.5,2.6c-0.7,0.9-0.9,1.9-0.8,2.8
	c0.2,1.2,0.4,1.7,1.1,2.8c1.3,2,1.5,3.4,1.4,4.6c-0.2,1.7-1.1,4-3.2,5.4c-2.1,1.4-4.5,2-6.9,1.4c-3.2-0.7-6.8-3-7.1-8.4
	c-0.1-0.9-0.2-1.9,0.5-4.2c0.5-1.9,1-2.8,1.3-3.3c0.4-0.7,1.1-1.7,1.5-2.2c0.6-0.8,1.7-1.7,1.9-1.9c1.7-1.1,2.7-1.3,2.8-1.2
	c0,0-0.2,0.2-0.8,0.6c0,0-0.2,0.1-0.3,0.3c-1.5,1.5-2.1,3.5-2.1,3.5c-0.2,0.5-0.6,2.2-0.1,4.1c0.3,0.8,0.7,1.7,0.9,1.7
	c0.1,0,0.1-0.5,0.1-1.2c0.1-1,0.4-1.9,0.8-2.5c0.2-0.4,0.8-1.5,2-2.5c1.4-1.3,2.9-1.6,3.2-1.7c1.3-0.4,2.7-0.7,3-0.8
	c1-0.1,1.3-0.2,2.2-0.4c0.6-0.1,1.9-0.4,2-0.2C31.4,19.3,30.8,19.8,30.4,20.1z"/>
</svg>
