<?xml version="1.0" encoding="utf-8"?>
<!-- Generator: Adobe Illustrator 25.1.0, SVG Export Plug-In . SVG Version: 6.00 Build 0)  -->
<svg version="1.1" id="Layer_1" xmlns="http://www.w3.org/2000/svg" xmlns:xlink="http://www.w3.org/1999/xlink" x="0px" y="0px"
	 viewBox="0 0 360 260" style="enable-background:new 0 0 360 260;" xml:space="preserve">
<style type="text/css">
	.st0{display:none;}
	.st1{fill:url(#SVGID_1_);}
	.st2{fill:url(#SVGID_2_);}
	.st3{fill:url(#SVGID_3_);}
	.st4{fill:url(#SVGID_4_);}
</style>
<g id="Layer_2_1_" className="st0">
	
		<text transform="matrix(0.8566 0 0 1 186.6455 573.8398)" style="display:inline; font-family:'Oswald-Medium'; font-size:85.9016px;">JH</text>
</g>
<rect x="-2.3" y="-0.7" width="366.1" height="266.8"/>
<g id="Layer_3_1_">
	<line x1="362" y1="0.4" x2="362" y2="264.6"/>
	
		<linearGradient id="SVGID_1_" gradientUnits="userSpaceOnUse" x1="135.9673" y1="73.3911" x2="172.7861" y2="112.0771" gradientTransform="matrix(1 0 0 -1 0 260)">
		<stop  offset="0" style="stop-color:#FFFFFF;stop-opacity:0"/>
		<stop  offset="1" style="stop-color:#FFFFFF"/>
	</linearGradient>
	<path className="st1" d="M216.2,175.7c0.3-0.8,0.6-1.7,0.6-2.5c0-0.2,0-0.2-0.1-0.1c-3.8,2.9-14.9,6-22.9,2.9c-0.1,0-0.6,0.4-1.7,0.9
		c-14,7.1-49.6,10.1-57.6-36.4c-0.3-1.7,0.2-4.5,0-4.8c-4.1-6.8-4.1-12-4.1-17.4c-1.1,2.5-4.4,11.2-4.3,24.8c0.1,14,4.1,21.2,6,25
		c10.9,21.1,35.5,25.7,45.4,25.4C203.1,192.4,215,178.7,216.2,175.7z"/>
	
		<linearGradient id="SVGID_2_" gradientUnits="userSpaceOnUse" x1="421.3141" y1="589.23" x2="413.75" y2="643.9093" gradientTransform="matrix(0.8059 0.5921 0.6062 -0.8277 -496.8155 426.7508)">
		<stop  offset="0" style="stop-color:#FFFFFF;stop-opacity:0"/>
		<stop  offset="1" style="stop-color:#FFFFFF"/>
	</linearGradient>
	<path className="st2" d="M212.7,136.8c0-0.2,0-0.2,0-0.2l0,0c2.5-0.5,4.9-2.1,6.7-4.8c1.4-2,2.6-6,3.5-8.6c1.2-3.4,2.4-13.3,2.7-13.2
		c0.5,0.2,1.7,4.6,2,6.5c0.5,2.7,0.5,3.8,0.9,6.7c0.2,1,0.5,5.3,0.5,9.4c0,1,0.2,5.5-2.3,10.8c-2.1,4.7-4.6,7.4-5.5,8.4
		c-1.6,1.5-3.8,3.4-6.7,4.6c-1.9,0.8-3.3,1.1-3.3,1.5c0,0.6,2.9,1.1,5.6,1.1c5.9-0.2,10.4-3.2,11.7-4.1c0,0,5.1-3.5,8.1-9.4
		c0.3-0.7,0.6-1.2,0.6-1.2c0.9-1.9,1-2.8,1.1-2.8c0.3,0,0.6,3.1-1.1,9.1c-0.3,1-2.2,5-3.8,7.4c-1.2,1.7-3.3,4.6-5.1,6.4
		c-1.3,1.3-3.5,3.7-8.3,6.9c-6.3,4.1-9.1,4.8-11.8,5.4c-8.6,1.7-14.6-0.6-14.6-0.7c0.4-0.2,0.6-0.4,0.8-0.5c1.3-0.9,1.5-1,2.6-1.9
		c3.5-2.9,4.9-4,7.2-7.2c6.3-8.8,9-16.8,8.6-25.5C212.9,138.2,212.7,136.8,212.7,136.8z"/>
	
		<linearGradient id="SVGID_3_" gradientUnits="userSpaceOnUse" x1="-768.6475" y1="525.9427" x2="-768.6475" y2="580.3488" gradientTransform="matrix(-0.839 -0.6445 0.7401 -0.9486 -913.8416 149.8824)">
		<stop  offset="0" style="stop-color:#FFFFFF;stop-opacity:0"/>
		<stop  offset="1" style="stop-color:#FFFFFF"/>
	</linearGradient>
	<path className="st3" d="M181.7,91.2c0.3-1.1,0.8-2,1.4-2.9c2.3-3.6,5.4-5.8,8.3-7.8c1.4-1.1,5.7-3.1,5.6-3.4c-0.4-0.5-10.5-1.7-22,3.8
		c-1,0.5-8.4,3.5-13.5,7.9c-4.5,3.9-6.9,7.6-7.6,9c-0.9,1.6-1.9,3.7-2.6,6c0,0.1-0.2,0.2-0.2,0.3c-0.9,0.8-2.3,2.1-2.9,2.7
		c-0.1,0.1-0.3,0.2-0.3,0.2c-0.2-0.6-0.4-1.2-0.5-1.9c-1.4-6.3,0.8-12.2,1.4-14c0,0,2.5-6.7,8-12.1c0.6-0.6,1.1-1.1,1.1-1.1
		c1.8-1.7,2.7-2,2.7-2.2c-0.1-0.3-3.5,0.5-9.6,4.5c-1,0.6-4.8,4.1-6.9,6.7c-1.5,1.9-4.1,5.2-5.7,7.8c-1.1,1.8-3.1,5.1-5.3,11.4
		c-2.8,8.1-2.8,11.4-2.8,14.6c0,6,1.6,11,4.1,15.2c0.1,0.1,0-0.1,0-0.4c1.2-8.8,4.2-20.6,16-30.9c5.7-5,11.6-7.5,15.5-9.3
		c4.5-2.1,9.4-3.2,14.6-3.9C180.8,91.3,181.7,91.4,181.7,91.2z"/>
	
		<linearGradient id="SVGID_4_" gradientUnits="userSpaceOnUse" x1="-348.8461" y1="783.58" x2="-348.8461" y2="600.1041" gradientTransform="matrix(-0.8063 -0.5915 0.5915 -0.8063 -479.1835 439.9146)">
		<stop  offset="0" style="stop-color:#FFFFFF;stop-opacity:0"/>
		<stop  offset="1" style="stop-color:#FFFFFF"/>
	</linearGradient>
	<path className="st4" d="M168.5,180.9c2.8,0.7,13.2,0.5,21.1-2.7c6.3-2.5,10.4-6.3,12.7-9c2.6-3.1,8.3-9.9,10-19.2
		c1.3-7.1,0.5-12.3,0.3-14.2c-0.2-2-0.6-3.8-1.3-9c-0.5-4.2-0.5-5.7-0.5-6.6c0.2-6.6,3.6-11.6,4.6-12.9c4.1-5.6,9.5-9.1,10.2-9.5
		c1.4-0.7,3.1-1.4,3-1.7c-0.2-0.8-9.9,1.7-10.5-0.2c-0.2-0.6,0.7-1.4,1.4-2.2c2.1-2.3,3.4-4.8,5.9-9.8c2.6-5.4,3-10.4,3.1-12.8
		c0.2-4.4-0.5-7.4-1.5-11.9c-0.5-2.3-0.9-3.2-1.1-3.2c-0.5,0.1-0.6,3.1-0.8,5.4c-0.8,6.5-3.8,11.4-5,13.2
		c-0.5,0.7-6.9,10.9-18.3,14.2c-1.7,0.5-4.2,0.8-9.4,1.4c-6.3,0.8-8.9,0.8-11.8,1.1c-11.2,1.2-20,6.2-21.7,7.2
		c-2.9,1.7-9.1,5.4-14.7,12.7c-4.8,6.2-6.9,12-7.5,13.8c-2.2,6.7-2.5,12.2-2.5,15.2c0,0,0.5,7.3,1.9,11.5
		C141.8,167.4,153.1,178.7,168.5,180.9z"/>
	<path d="M190.3,163.6c6.3-4.1,9.1-11.1,9.6-16.1c0.3-3.5-0.4-7.7-4.2-13.7c-2.3-3.5-2.8-5-3.3-8.5c-0.5-2.6,0.2-5.7,2.3-8.2
		c1.4-1.8,5.5-6,7.5-7.8c1.1-1,2.9-2.3,2.7-2.6c-0.4-0.5-4.1,0.5-6,0.7c-2.6,0.3-3.8,0.7-6.6,1.1c-1,0.2-5.1,1.1-9,2.3
		c-0.9,0.3-5.3,1.4-9.5,5.1c-3.7,3.3-5.6,6.4-6.1,7.6c-1,1.9-2,4.6-2.3,7.6c-0.2,2,0,3.4-0.4,3.5c-0.6,0.2-2-2.5-2.7-4.9
		c-1.7-5.6-0.2-10.6,0.2-12.2c0,0,1.7-5.8,6.3-10.3c0.5-0.5,1-0.9,1-0.9c1.5-1.4,2.3-1.7,2.3-1.8c-0.2-0.3-3.1,0.3-8.2,3.7
		c-0.8,0.5-4.1,3.5-5.7,5.7c-1.2,1.6-3.3,4.4-4.5,6.6c-0.8,1.6-2.4,4.3-3.8,9.8c-1.9,7-1.6,9.9-1.4,12.6c1,15.9,11.7,22.8,21.2,24.9
		C176.8,169.4,183.9,167.8,190.3,163.6z"/>
</g>
</svg>
