<?xml version="1.0" encoding="utf-8"?>
<!-- Generator: Adobe Illustrator 25.1.0, SVG Export Plug-In . SVG Version: 6.00 Build 0)  -->
<svg version="1.1" xmlns="http://www.w3.org/2000/svg" xmlns:xlink="http://www.w3.org/1999/xlink" x="0px" y="0px"
	 viewBox="0 0 360 260" style="enable-background:new 0 0 360 260;" xml:space="preserve">
<style type="text/css">
	.st0{fill:url(#SVGID_1_);}
	.st1{fill:url(#SVGID_2_);}
	.st2{fill:url(#SVGID_3_);}
	.st3{fill:url(#SVGID_4_);}
	.st4{display:none;}
</style>
<g id="Layer_1">
	<g id="q6wzrg_1_">
		
			<image style="overflow:visible;" width="1280" height="720" id="q6wzrg" xlink:href="6F34375D1AC8555B.jpg"  transform="matrix(0.5007 1.142439e-02 -1.142439e-02 0.5007 -2057.4902 140.5719)">
		</image>
	</g>
</g>
<g id="Layer_3">
	<rect x="-2.9" y="-2" width="365.6" height="264.2"/>
	
		<linearGradient id="SVGID_1_" gradientUnits="userSpaceOnUse" x1="145.2205" y1="71.9774" x2="174.2783" y2="117.6765" gradientTransform="matrix(1 0 0 -1 0 262)">
		<stop  offset="0.3243" style="stop-color:#E9EF14"/>
		<stop  offset="0.9235" style="stop-color:#FF6D00"/>
	</linearGradient>
	<path className="st0" d="M217.8,173.4c0.3-0.8,0.6-1.7,0.6-2.5c0-0.2,0-0.1-0.1-0.1c-3.9,2.9-15.1,6-23.3,2.9c-0.1,0-0.6,0.4-1.7,0.9
		c-14.1,7.2-50.3,10.3-58.4-36.9c-0.3-1.7,0.2-4.6,0-4.9c-4.2-6.9-4.2-12.2-4.2-17.6c-1.1,2.5-4.5,11.4-4.4,25.2
		c0.1,14.2,4.1,21.5,6.1,25.3c11,21.5,35.9,26.1,46.1,25.7C204.6,190.3,216.6,176.5,217.8,173.4z"/>
	
		<linearGradient id="SVGID_2_" gradientUnits="userSpaceOnUse" x1="420.554" y1="593.3728" x2="412.8838" y2="648.8185" gradientTransform="matrix(0.8059 0.5921 0.6062 -0.8277 -497.4217 428.5785)">
		<stop  offset="0.202" style="stop-color:#E9EF14"/>
		<stop  offset="0.9235" style="stop-color:#FF6D00"/>
	</linearGradient>
	<path className="st1" d="M214.2,133.9c0-0.1,0-0.2,0-0.3l0,0c2.5-0.5,5-2.1,6.8-4.8c1.4-2,2.6-6.1,3.5-8.7c1.3-3.4,2.5-13.5,2.8-13.4
		c0.5,0.2,1.7,4.7,2,6.6c0.5,2.7,0.5,3.9,0.9,6.8c0.2,1,0.5,5.4,0.4,9.6c0,1,0.2,5.6-2.3,11c-2.1,4.7-4.7,7.5-5.6,8.5
		c-1.6,1.6-3.9,3.4-6.8,4.7c-1.9,0.8-3.4,1.1-3.3,1.5c0,0.6,3,1.1,5.6,1.1c6-0.1,10.5-3.2,11.9-4.1c0,0,5.2-3.6,8.3-9.5
		c0.3-0.7,0.6-1.2,0.6-1.2c0.9-1.9,1-2.8,1.1-2.8c0.3,0,0.6,3.2-1.1,9.3c-0.3,1-2.2,5.1-3.9,7.5c-1.2,1.7-3.3,4.7-5.2,6.5
		c-1.3,1.3-3.5,3.7-8.4,6.9c-6.3,4.1-9.2,4.8-12,5.4c-8.6,1.8-14.7-0.5-14.6-0.6c0.3-0.2,0.6-0.4,0.7-0.5c1.3-0.9,1.6-1,2.7-1.9
		c3.6-2.9,5-4.1,7.3-7.3c6.4-8.9,9.1-17,8.8-25.9C214.3,135.3,214.2,133.9,214.2,133.9z"/>
	
		<linearGradient id="SVGID_3_" gradientUnits="userSpaceOnUse" x1="-766.4377" y1="529.4016" x2="-766.4377" y2="584.5933" gradientTransform="matrix(-0.839 -0.6445 0.7401 -0.9486 -914.5816 151.831)">
		<stop  offset="0.3243" style="stop-color:#E9EF14"/>
		<stop  offset="0.9235" style="stop-color:#FF6D00"/>
	</linearGradient>
	<path className="st2" d="M182.7,87.7c0.3-1,0.8-2.1,1.4-3c2.3-3.7,5.5-5.9,8.4-8c1.5-1.1,5.8-3.2,5.6-3.4c-0.4-0.5-10.6-1.8-22.3,3.9
		c-1,0.5-8.5,3.5-13.7,8.1c-4.5,4-6.9,7.7-7.7,9.1c-0.9,1.6-1.9,3.8-2.7,6.1c0,0.1-0.2,0.2-0.3,0.3c-0.9,0.7-2.4,2.1-2.9,2.7
		c-0.1,0.1-0.3,0.1-0.3,0c-0.2-0.6-0.4-1.2-0.5-1.8c-1.4-6.4,0.8-12.4,1.5-14.2c0,0,2.5-6.8,8.1-12.3c0.6-0.6,1.2-1.1,1.2-1.1
		c1.9-1.7,2.8-2.1,2.7-2.2c-0.1-0.3-3.6,0.5-9.7,4.6c-1,0.6-4.9,4.2-7.1,6.8c-1.6,1.9-4.2,5.3-5.7,7.9c-1,1.8-3.1,5.1-5.4,11.5
		c-2.9,8.2-2.9,11.5-2.8,14.7c0,6.1,1.8,11.4,4.4,15.6c0.1,0.1,0.2-0.3,0.2-0.6c2.6-10.7,4.5-20.3,15.9-31.3
		c5.8-5.1,11.8-7.6,15.7-9.4c4.6-2.1,9.5-3.3,14.8-4C181.8,87.8,182.7,87.9,182.7,87.7z"/>
	
		<linearGradient id="SVGID_4_" gradientUnits="userSpaceOnUse" x1="269.2387" y1="222.1197" x2="152.0351" y2="102.3719" gradientTransform="matrix(1 0 0 -1 0 262)">
		<stop  offset="0.3424" style="stop-color:#E9EF14"/>
		<stop  offset="0.9235" style="stop-color:#FF6D00"/>
	</linearGradient>
	<path className="st3" d="M219.7,92.4c-0.2-0.6,0.7-1.4,1.4-2.2c2.1-2.3,3.4-4.9,6-10c2.7-5.5,3-10.6,3.2-13c0.2-4.5-0.4-7.5-1.5-12.1
		c-0.5-2.3-0.9-3.2-1.2-3.2c-0.5,0.1-0.6,3.2-0.9,5.5c-0.8,6.6-3.9,11.6-5,13.4c-0.4,0.7-7.1,11.1-18.5,14.4
		c-1.7,0.5-4.3,0.8-9.5,1.4c-6.4,0.8-9,0.8-12,1.1c-11.4,1.2-20.3,6.3-22,7.3c-4.8,2.7-9.2,5.5-14.9,12.8c-4.9,6.3-6.9,12.2-7.5,14
		c-2.2,6.8-2.5,12.4-2.5,15.5c0,0,0.4,7.5,1.9,11.6c5.7,15.9,17.2,27.4,32.7,29.6c2.8,0.7,13.4,0.4,21.4-2.8
		c6.4-2.6,10.6-6.4,12.8-9.1c2.6-3.1,8.4-10,10.2-19.5c1.3-7.2,0.5-12.5,0.3-14.4c-0.2-2-0.6-3.8-1.3-9.1c-0.6-4.3-0.5-5.8-0.5-6.7
		c0.1-6.7,3.7-11.8,4.7-13.1c4.1-5.7,9.7-9.3,10.3-9.6c1.4-0.7,3.1-1.3,3.1-1.7C230.2,91.7,220.3,94.3,219.7,92.4z M203.4,106.1
		c-2.1,1.8-6.2,6.1-7.6,8c-2.1,2.6-2.8,5.7-2.3,8.4c0.6,3.5,1.1,5,3.4,8.5c3.9,6,4.6,10.3,4.3,13.8c-0.5,5.1-3.4,12.2-9.7,16.4
		c-6.5,4.3-13.7,5.9-21,4.2c-9.6-2.1-20.5-9.1-21.5-25.3c-0.2-2.8-0.5-5.7,1.4-12.8c1.5-5.6,3.1-8.4,3.9-9.9
		c1.1-2.2,3.3-5.1,4.5-6.7c1.7-2.3,5-5.2,5.8-5.8c5.2-3.4,8.2-4,8.4-3.7c0.1,0.1-0.7,0.5-2.3,1.9c0,0-0.5,0.4-1,0.9
		c-4.6,4.6-6.4,10.5-6.4,10.5c-0.5,1.6-1.9,6.7-0.2,12.4c0.8,2.5,2.2,5.2,2.7,5c0.4-0.1,0.2-1.6,0.4-3.6c0.3-3,1.3-5.8,2.3-7.7
		c0.6-1.2,2.4-4.4,6.2-7.7c4.3-3.8,8.7-4.9,9.6-5.2c3.9-1.2,8.1-2.2,9.1-2.3c2.9-0.4,3.9-0.7,6.7-1.1c1.9-0.2,5.7-1.1,6-0.7
		C206.4,103.7,204.5,105.1,203.4,106.1z"/>
</g>
<g id="Layer_2" className="st4">
	
		<image style="display:inline;overflow:visible;" width="2400" height="1496" xlink:href="../../golden-ratio.png"  transform="matrix(-5.981124e-02 5.385479e-02 -5.385479e-02 -5.981124e-02 321.5729 115.0038)">
	</image>
	
		<image style="display:inline;overflow:visible;" width="2400" height="1496" xlink:href="../../golden-ratio.png"  transform="matrix(-5.981124e-02 5.385479e-02 -5.385479e-02 -5.981124e-02 802.551 558.5375)">
	</image>
	
		<text transform="matrix(0.8566 0 0 1 186.6456 573.8398)" style="display:inline; font-family:'Oswald-Medium'; font-size:85.9016px;">JH</text>
</g>
</svg>
